<svg xmlns="http://www.w3.org/2000/svg" fill="none" viewBox="0 0 18 18" class="sc-hpEEal gPEKAI"><path fill="#2E30F0" d="M8 .577a2 2 0 0 1 2 0l5.794 3.346a2 2 0 0 1 1 1.732v6.69a2 2 0 0 1-1 1.732L10 17.423a2 2 0 0 1-2 0l-5.794-3.346a2 2 0 0 1-1-1.732v-6.69a2 2 0 0 1 1-1.732z"></path><path fill="#fff" fill-rule="evenodd" d="m8.492 13.244.007-8.49h1.012l-.007 8.49z" clip-rule="evenodd"></path><path fill="#fff" fill-rule="evenodd" d="m12.398 11.566-7.3-4.252.507-.881 7.3 4.25z" clip-rule="evenodd"></path><path fill="#fff" fill-rule="evenodd" d="m5.6 11.56 7.307-4.239-.505-.882-7.306 4.238z" clip-rule="evenodd"></path></svg>